<svg height="496pt" viewBox="0 0 496.04799 496" width="496pt" xmlns="http://www.w3.org/2000/svg"><path d="m8 8.023438h384v112h-384zm0 0" fill="#003f8a"/><path d="m8 120.023438h384v112h-384zm0 0" fill="#004fac"/><path d="m8 232.023438h384v112h-384zm0 0" fill="#003f8a"/><path d="m392 256.023438c-45.800781 0-85.222656 32.347656-94.160156 77.269531-8.9375 44.917969 15.101562 89.894531 57.414062 107.421875s91.113282 2.726562 116.5625-35.351563c25.445313-38.082031 20.449219-88.832031-11.9375-121.21875-17.984375-18.03125-42.410156-28.152343-67.878906-28.121093zm-32 136-24-24 24 24 80-80zm0 0" fill="#f9ed32"/><path d="m232 64.023438c0 8.835937-7.164062 16-16 16s-16-7.164063-16-16c0-8.835938 7.164062-16 16-16s16 7.164062 16 16zm0 0" fill="#9bc9ff"/><path d="m296 64.023438c0 8.835937-7.164062 16-16 16s-16-7.164063-16-16c0-8.835938 7.164062-16 16-16s16 7.164062 16 16zm0 0" fill="#d80027"/><path d="m360 64.023438c0 8.835937-7.164062 16-16 16s-16-7.164063-16-16c0-8.835938 7.164062-16 16-16s16 7.164062 16 16zm0 0" fill="#9bc9ff"/><path d="m232 176.023438c0 8.835937-7.164062 16-16 16s-16-7.164063-16-16c0-8.835938 7.164062-16 16-16s16 7.164062 16 16zm0 0" fill="#d80027"/><path d="m296 176.023438c0 8.835937-7.164062 16-16 16s-16-7.164063-16-16c0-8.835938 7.164062-16 16-16s16 7.164062 16 16zm0 0" fill="#9bc9ff"/><path d="m360 176.023438c0 8.835937-7.164062 16-16 16s-16-7.164063-16-16c0-8.835938 7.164062-16 16-16s16 7.164062 16 16zm0 0" fill="#9bc9ff"/><path d="m40 40.023438h48v48h-48zm0 0" fill="#9bc9ff"/><path d="m40 152.023438h48v48h-48zm0 0" fill="#9bc9ff"/><path d="m232 288.023438c0 8.835937-7.164062 16-16 16s-16-7.164063-16-16c0-8.835938 7.164062-16 16-16s16 7.164062 16 16zm0 0" fill="#9bc9ff"/><path d="m296 288.023438c0 8.835937-7.164062 16-16 16s-16-7.164063-16-16c0-8.835938 7.164062-16 16-16s16 7.164062 16 16zm0 0" fill="#d80027"/><path d="m40 264.023438h48v48h-48zm0 0" fill="#9bc9ff"/><g fill="#231f20"><path d="m465.535156 278.488281c-17.535156-17.546875-40.796875-28.203125-65.535156-30.03125v-240.433593c0-4.417969-3.582031-8.0000005-8-8.0000005h-384c-4.417969 0-8 3.5820315-8 8.0000005v336c0 4.417968 3.582031 8 8 8h184v128h-136c-4.417969 0-8 3.582031-8 8 0 4.417968 3.582031 8 8 8h288c4.417969 0 8-3.582032 8-8 0-4.417969-3.582031-8-8-8h-136v-128h80.046875c-.023437 47.085937 31.589844 88.316406 77.074219 100.507812 45.480468 12.191406 93.476562-7.695312 117.007812-48.480469 23.53125-40.785156 16.726563-92.289062-16.59375-125.5625zm-449.535156-150.464843h368v96h-368zm0-112h368v96h-368zm0 320v-96h368v8.433593c-48.101562 3.542969-87.363281 39.878907-94.609375 87.566407zm438.222656 78.222656c-34.363281 34.371094-90.082031 34.371094-124.449218.003906-34.367188-34.367188-34.367188-90.085938 0-124.453125 34.367187-34.363281 90.085937-34.363281 124.449218.003906 34.3125 34.386719 34.3125 90.058594 0 124.445313zm0 0"/><path d="m434.34375 306.367188-74.34375 74.34375-18.34375-18.34375c-3.140625-3.03125-8.128906-2.988282-11.214844.097656-3.085937 3.085937-3.128906 8.074218-.097656 11.214844l24 24c3.125 3.125 8.1875 3.125 11.3125 0l80-80c3.03125-3.140626 2.988281-8.128907-.097656-11.214844-3.085938-3.085938-8.074219-3.128906-11.214844-.097656zm0 0"/><path d="m216 40.023438c-13.253906 0-24 10.746093-24 24 0 13.253906 10.746094 24 24 24s24-10.746094 24-24c0-13.253907-10.746094-24-24-24zm0 32c-4.417969 0-8-3.582032-8-8 0-4.417969 3.582031-8 8-8s8 3.582031 8 8c0 4.417968-3.582031 8-8 8zm0 0"/><path d="m280 40.023438c-13.253906 0-24 10.746093-24 24 0 13.253906 10.746094 24 24 24s24-10.746094 24-24c0-13.253907-10.746094-24-24-24zm0 32c-4.417969 0-8-3.582032-8-8 0-4.417969 3.582031-8 8-8s8 3.582031 8 8c0 4.417968-3.582031 8-8 8zm0 0"/><path d="m344 40.023438c-13.253906 0-24 10.746093-24 24 0 13.253906 10.746094 24 24 24s24-10.746094 24-24c0-13.253907-10.746094-24-24-24zm0 32c-4.417969 0-8-3.582032-8-8 0-4.417969 3.582031-8 8-8s8 3.582031 8 8c0 4.417968-3.582031 8-8 8zm0 0"/><path d="m216 152.023438c-13.253906 0-24 10.746093-24 24 0 13.253906 10.746094 24 24 24s24-10.746094 24-24c0-13.253907-10.746094-24-24-24zm0 32c-4.417969 0-8-3.582032-8-8 0-4.417969 3.582031-8 8-8s8 3.582031 8 8c0 4.417968-3.582031 8-8 8zm0 0"/><path d="m280 152.023438c-13.253906 0-24 10.746093-24 24 0 13.253906 10.746094 24 24 24s24-10.746094 24-24c0-13.253907-10.746094-24-24-24zm0 32c-4.417969 0-8-3.582032-8-8 0-4.417969 3.582031-8 8-8s8 3.582031 8 8c0 4.417968-3.582031 8-8 8zm0 0"/><path d="m344 152.023438c-13.253906 0-24 10.746093-24 24 0 13.253906 10.746094 24 24 24s24-10.746094 24-24c0-13.253907-10.746094-24-24-24zm0 32c-4.417969 0-8-3.582032-8-8 0-4.417969 3.582031-8 8-8s8 3.582031 8 8c0 4.417968-3.582031 8-8 8zm0 0"/><path d="m88 32.023438h-48c-4.417969 0-8 3.582031-8 8v48c0 4.417968 3.582031 8 8 8h48c4.417969 0 8-3.582032 8-8v-48c0-4.417969-3.582031-8-8-8zm-8 48h-32v-32h32zm0 0"/><path d="m88 144.023438h-48c-4.417969 0-8 3.582031-8 8v48c0 4.417968 3.582031 8 8 8h48c4.417969 0 8-3.582032 8-8v-48c0-4.417969-3.582031-8-8-8zm-8 48h-32v-32h32zm0 0"/><path d="m216 264.023438c-13.253906 0-24 10.746093-24 24 0 13.253906 10.746094 24 24 24s24-10.746094 24-24c0-13.253907-10.746094-24-24-24zm0 32c-4.417969 0-8-3.582032-8-8 0-4.417969 3.582031-8 8-8s8 3.582031 8 8c0 4.417968-3.582031 8-8 8zm0 0"/><path d="m280 264.023438c-13.253906 0-24 10.746093-24 24 0 13.253906 10.746094 24 24 24s24-10.746094 24-24c0-13.253907-10.746094-24-24-24zm0 32c-4.417969 0-8-3.582032-8-8 0-4.417969 3.582031-8 8-8s8 3.582031 8 8c0 4.417968-3.582031 8-8 8zm0 0"/><path d="m88 256.023438h-48c-4.417969 0-8 3.582031-8 8v48c0 4.417968 3.582031 8 8 8h48c4.417969 0 8-3.582032 8-8v-48c0-4.417969-3.582031-8-8-8zm-8 48h-32v-32h32zm0 0"/><path d="m392 480.023438h-24c-4.417969 0-8 3.582031-8 8 0 4.417968 3.582031 8 8 8h24c4.417969 0 8-3.582032 8-8 0-4.417969-3.582031-8-8-8zm0 0"/><path d="m32 480.023438h-24c-4.417969 0-8 3.582031-8 8 0 4.417968 3.582031 8 8 8h24c4.417969 0 8-3.582032 8-8 0-4.417969-3.582031-8-8-8zm0 0"/></g></svg>